<svg width="30" height="30" viewBox="0 0 30 30" fill="none" xmlns="http://www.w3.org/2000/svg">
<path d="M25 21.2501V14.3152V14.3143C25 13.647 25 13.3131 24.9188 13.0025C24.8469 12.727 24.7283 12.4658 24.5685 12.2303C24.388 11.9645 24.1369 11.7447 23.6343 11.3048L17.6343 6.05484C16.701 5.23824 16.2344 4.82999 15.7092 4.67469C15.2465 4.53784 14.7535 4.53784 14.2908 4.67469C13.7659 4.8299 13.2997 5.23779 12.3675 6.05351L12.366 6.05484L6.36597 11.3048L6.36477 11.3059C5.8629 11.745 5.6118 11.9647 5.43152 12.2303C5.27163 12.4659 5.15319 12.727 5.08121 13.0025C5 13.3133 5 13.6473 5 14.3152V21.2501C5 22.415 5 22.9973 5.1903 23.4567C5.44404 24.0693 5.93101 24.556 6.54358 24.8097C7.00301 25 7.58543 25 8.75029 25C9.91514 25 10.4973 25 10.9567 24.8097C11.5693 24.556 12.0558 24.0693 12.3096 23.4567C12.4999 22.9973 12.5 22.4149 12.5 21.25V20C12.5 18.6193 13.6193 17.5 15 17.5C16.3807 17.5 17.5 18.6193 17.5 20V21.25C17.5 22.4149 17.5 22.9973 17.6903 23.4567C17.944 24.0693 18.431 24.556 19.0436 24.8097C19.503 25 20.0854 25 21.2503 25C22.4151 25 22.9973 25 23.4567 24.8097C24.0693 24.556 24.5558 24.0693 24.8096 23.4567C24.9999 22.9973 25 22.415 25 21.2501Z" stroke="#392AAB" stroke-width="2" stroke-linecap="round" stroke-linejoin="round"/>
</svg>
