<svg width="30" height="30" viewBox="0 0 30 30" fill="none" xmlns="http://www.w3.org/2000/svg">
<path d="M6.36475 24.7275L6.81874 23.8365H6.81874L6.36475 24.7275ZM5.27248 23.635L4.38148 24.089L5.27248 23.635ZM24.7278 23.635L23.8368 23.181L24.7278 23.635ZM23.6347 24.7275L23.1807 23.8365L23.6347 24.7275ZM23.6347 5.27248L24.0887 4.38148V4.38148L23.6347 5.27248ZM24.7278 6.36505L23.8368 6.81904L24.7278 6.36505ZM6.36475 5.27248L6.81874 6.16349L6.36475 5.27248ZM5.27248 6.36505L6.16349 6.81904L5.27248 6.36505ZM20 20V19C19.4477 19 19 19.4477 19 20H20ZM20.0025 20L21.0022 20.0234C21.0085 19.7542 20.906 19.4938 20.7178 19.3012C20.5297 19.1086 20.2718 19 20.0025 19V20ZM20.0024 20.0025L19.9785 21.0022C20.2438 21.0086 20.5006 20.9092 20.6926 20.7261C20.8846 20.543 20.996 20.2911 21.0022 20.0259L20.0024 20.0025ZM20 20.0024H19C19 20.5454 19.4333 20.9892 19.9761 21.0022L20 20.0024ZM15 20V19C14.4477 19 14 19.4477 14 20H15ZM15.0025 20L16.0022 20.0234C16.0085 19.7542 15.906 19.4938 15.7178 19.3012C15.5297 19.1086 15.2718 19 15.0025 19V20ZM15.0024 20.0025L14.9785 21.0022C15.2438 21.0086 15.5006 20.9092 15.6926 20.7261C15.8846 20.543 15.996 20.2911 16.0022 20.0259L15.0024 20.0025ZM15 20.0024H14C14 20.5454 14.4333 20.9892 14.9761 21.0022L15 20.0024ZM10 20V19C9.44772 19 9 19.4477 9 20H10ZM10.0025 20L11.0022 20.0234C11.0085 19.7542 10.906 19.4938 10.7178 19.3012C10.5297 19.1086 10.2718 19 10.0025 19V20ZM10.0024 20.0025L9.97852 21.0022C10.2438 21.0086 10.5006 20.9092 10.6926 20.7261C10.8846 20.543 10.996 20.2911 11.0022 20.0259L10.0024 20.0025ZM10 20.0024H9C9 20.5454 9.43327 20.9892 9.97608 21.0022L10 20.0024ZM20.0024 15H21.0024C21.0024 14.4477 20.5547 14 20.0024 14V15ZM20.0024 15.0025L19.9785 16.0022C20.2478 16.0087 20.5083 15.9062 20.701 15.718C20.8938 15.5298 21.0024 15.2719 21.0024 15.0025H20.0024ZM20 15.0024H19C19 15.5454 19.4333 15.9892 19.9761 16.0022L20 15.0024ZM20 15V14C19.4477 14 19 14.4477 19 15H20ZM15 15V14C14.4477 14 14 14.4477 14 15H15ZM15.0025 15L16.0022 15.0234C16.0085 14.7542 15.906 14.4938 15.7178 14.3012C15.5297 14.1086 15.2718 14 15.0025 14V15ZM15.0024 15.0025L14.9785 16.0022C15.2438 16.0086 15.5006 15.9092 15.6926 15.7261C15.8846 15.543 15.996 15.2911 16.0022 15.0259L15.0024 15.0025ZM15 15.0024H14C14 15.5454 14.4333 15.9892 14.9761 16.0022L15 15.0024ZM10 15V14C9.44772 14 9 14.4477 9 15H10ZM10.0025 15L11.0022 15.0234C11.0085 14.7542 10.906 14.4938 10.7178 14.3012C10.5297 14.1086 10.2718 14 10.0025 14V15ZM10.0024 15.0025L9.97852 16.0022C10.2438 16.0086 10.5006 15.9092 10.6926 15.7261C10.8846 15.543 10.996 15.2911 11.0022 15.0259L10.0024 15.0025ZM10 15.0024H9C9 15.5454 9.43327 15.9892 9.97608 16.0022L10 15.0024ZM5 9C4.44772 9 4 9.44772 4 10C4 10.5523 4.44772 11 5 11V9ZM25 11C25.5523 11 26 10.5523 26 10C26 9.44772 25.5523 9 25 9V11ZM21 2.5C21 1.94772 20.5523 1.5 20 1.5C19.4477 1.5 19 1.94772 19 2.5H21ZM19 5C19 5.55228 19.4477 6 20 6C20.5523 6 21 5.55228 21 5H19ZM11 2.5C11 1.94772 10.5523 1.5 10 1.5C9.44772 1.5 9 1.94772 9 2.5H11ZM9 5C9 5.55228 9.44772 6 10 6C10.5523 6 11 5.55228 11 5H9ZM9.00024 6H21.0002V4H9.00024V6ZM24 8.99994V20.9999H26V8.99994H24ZM21.0002 24H9.00024V26H21.0002V24ZM6 20.9999V8.99994H4V20.9999H6ZM9.00024 24C8.2837 24 7.80627 23.9992 7.43942 23.9692C7.08417 23.9402 6.92162 23.8889 6.81874 23.8365L5.91076 25.6185C6.34266 25.8385 6.79778 25.9235 7.27656 25.9626C7.74373 26.0008 8.31666 26 9.00024 26V24ZM4 20.9999C4 21.6835 3.99922 22.2563 4.03738 22.7234C4.07649 23.2022 4.16143 23.6572 4.38148 24.089L6.16349 23.181C6.11106 23.0781 6.05975 22.9157 6.03074 22.5606C6.00078 22.1938 6 21.7165 6 20.9999H4ZM6.81874 23.8365C6.53664 23.6927 6.30738 23.4634 6.16349 23.181L4.38148 24.089C4.71696 24.7474 5.25204 25.2829 5.91076 25.6185L6.81874 23.8365ZM24 20.9999C24 21.7166 23.9993 22.1939 23.9694 22.5607C23.9404 22.9159 23.8892 23.0783 23.8368 23.181L25.6188 24.089C25.8389 23.657 25.9237 23.2019 25.9628 22.7233C26.0008 22.2563 26 21.6834 26 20.9999H24ZM21.0002 26C21.6838 26 22.2565 26.0008 22.7235 25.9626C23.2022 25.9235 23.6569 25.8385 24.0887 25.6185L23.1807 23.8365C23.0777 23.8889 22.9153 23.9402 22.5605 23.9692C22.194 23.9992 21.7168 24 21.0002 24V26ZM23.8368 23.181C23.6932 23.4628 23.4635 23.6924 23.1807 23.8365L24.0887 25.6185C24.7468 25.2832 25.283 24.7481 25.6188 24.089L23.8368 23.181ZM21.0002 6C21.7168 6 22.194 6.00078 22.5605 6.03074C22.9154 6.05974 23.0778 6.11102 23.1807 6.16349L24.0887 4.38148C23.6569 4.16146 23.2021 4.0765 22.7235 4.03738C22.2565 3.99922 21.6838 4 21.0002 4V6ZM26 8.99994C26 8.31648 26.0008 7.74367 25.9628 7.27671C25.9237 6.79805 25.8389 6.34302 25.6188 5.91106L23.8368 6.81904C23.8892 6.92186 23.9404 7.08421 23.9694 7.43927C23.9993 7.80602 24 8.28327 24 8.99994H26ZM23.1807 6.16349C23.4634 6.30751 23.6932 6.53721 23.8368 6.81904L25.6188 5.91106C25.283 5.25208 24.7469 4.71683 24.0887 4.38148L23.1807 6.16349ZM9.00024 4C8.31667 4 7.74374 3.99922 7.27658 4.03738C6.79781 4.07648 6.34267 4.1614 5.91076 4.38148L6.81874 6.16349C6.9216 6.11108 7.08414 6.05976 7.43939 6.03074C7.80626 6.00078 8.28369 6 9.00024 6V4ZM6 8.99994C6 8.28337 6.00078 7.80611 6.03074 7.43942C6.05975 7.08442 6.11104 6.92197 6.16349 6.81904L4.38148 5.91106C4.16144 6.34291 4.0765 6.79784 4.03738 7.27655C3.99922 7.74358 4 8.31638 4 8.99994H6ZM5.91076 4.38148C5.25193 4.71717 4.7169 5.25275 4.38148 5.91106L6.16349 6.81904C6.30743 6.53654 6.53675 6.30717 6.81874 6.16349L5.91076 4.38148ZM20 21H20.0025V19H20V21ZM19.0028 19.9766L19.0027 19.9791L21.0022 20.0259L21.0022 20.0234L19.0028 19.9766ZM20.0264 19.0028L20.0239 19.0027L19.9761 21.0022L19.9785 21.0022L20.0264 19.0028ZM21 20.0024V20H19V20.0024H21ZM15 21H15.0025V19H15V21ZM14.0028 19.9766L14.0027 19.9791L16.0022 20.0259L16.0022 20.0234L14.0028 19.9766ZM15.0264 19.0028L15.0239 19.0027L14.9761 21.0022L14.9785 21.0022L15.0264 19.0028ZM16 20.0024V20H14V20.0024H16ZM10 21H10.0025V19H10V21ZM9.00277 19.9766L9.00271 19.9791L11.0022 20.0259L11.0022 20.0234L9.00277 19.9766ZM10.0264 19.0028L10.0239 19.0027L9.97608 21.0022L9.97852 21.0022L10.0264 19.0028ZM11 20.0024V20H9V20.0024H11ZM19.0024 15V15.0025H21.0024V15H19.0024ZM20.0264 14.0028L20.0239 14.0027L19.9761 16.0022L19.9785 16.0022L20.0264 14.0028ZM21 15.0024V15H19V15.0024H21ZM20 16H20.0024V14H20V16ZM15 16H15.0025V14H15V16ZM14.0028 14.9766L14.0027 14.9791L16.0022 15.0259L16.0022 15.0234L14.0028 14.9766ZM15.0264 14.0028L15.0239 14.0027L14.9761 16.0022L14.9785 16.0022L15.0264 14.0028ZM16 15.0024V15H14V15.0024H16ZM10 16H10.0025V14H10V16ZM9.00277 14.9766L9.00271 14.9791L11.0022 15.0259L11.0022 15.0234L9.00277 14.9766ZM10.0264 14.0028L10.0239 14.0027L9.97608 16.0022L9.97852 16.0022L10.0264 14.0028ZM11 15.0024V15H9V15.0024H11ZM5 11H25V9H5V11ZM19 2.5V5H21V2.5H19ZM9 2.5V5H11V2.5H9Z" fill="black" fill-opacity="0.6"/>
</svg>
