<svg width="20" height="20" viewBox="0 0 20 20" fill="none" xmlns="http://www.w3.org/2000/svg">
<path d="M3.84595 15.9989C3.84595 17.0744 4.72343 17.9491 5.80235 17.9491H14.2274C15.3063 17.9491 16.1838 17.0744 16.1838 15.9989V10.1207C16.1838 9.246 15.6009 8.51476 14.811 8.2678V6.77497C14.811 4.13976 12.658 1.99365 10.0152 1.99365C7.37175 1.99365 5.21943 4.13976 5.21943 6.77497V8.2678C4.42956 8.51476 3.84595 9.246 3.84595 10.1207V15.9989ZM10.7892 14.4599V14.6447C10.7892 15.0724 10.4436 15.4167 10.0152 15.4167C9.58615 15.4167 9.24054 15.0724 9.24054 14.6447V14.4599C8.54379 14.1611 8.0478 13.4665 8.0478 12.6635C8.0478 11.5825 8.9308 10.7023 10.0152 10.7023C11.099 10.7023 11.982 11.5825 11.982 12.6635C11.982 13.4665 11.486 14.1611 10.7892 14.4599ZM6.76813 6.77497C6.76813 4.98896 8.22371 3.53753 10.0152 3.53753C11.8061 3.53753 13.2623 4.98896 13.2623 6.77497V8.16984H6.76813V6.77497Z" fill="#ABABAB"/>
<path d="M10.0152 12.2461C9.78752 12.2461 9.59644 12.4317 9.59644 12.6635C9.59644 12.8898 9.78752 13.0753 10.0152 13.0753C10.2421 13.0753 10.4332 12.8898 10.4332 12.6635C10.4332 12.4317 10.2421 12.2461 10.0152 12.2461Z" fill="#ABABAB"/>
</svg>
