<svg width="23" height="23" viewBox="0 0 23 23" fill="none" xmlns="http://www.w3.org/2000/svg">
<path d="M20.4757 11.9331C20.528 11.8594 20.5685 11.7792 20.5963 11.6936C20.624 11.6071 20.6375 11.519 20.6375 11.4286C20.6375 11.3382 20.624 11.2501 20.5963 11.1636C20.5685 11.0779 20.528 10.9978 20.4757 10.924C18.0727 7.6016 14.8748 5.77537 11.4675 5.77537C10.0943 5.78569 8.7837 6.07525 7.53501 6.64486L4.65208 3.60088C4.6132 3.55487 4.57116 3.51361 4.52435 3.47553C4.47675 3.43825 4.42677 3.40651 4.37362 3.37875C4.31967 3.35177 4.26414 3.33036 4.20623 3.31528C4.14752 3.29942 4.08882 3.2899 4.02852 3.28672C3.96903 3.28276 3.90873 3.28593 3.85003 3.29466C3.79053 3.30338 3.73262 3.31766 3.6755 3.33829C3.61917 3.35891 3.56602 3.38509 3.51445 3.41683C3.46368 3.44856 3.41687 3.48505 3.37324 3.5271C3.32961 3.56835 3.29153 3.61357 3.25742 3.66276C3.2233 3.71194 3.19474 3.7643 3.17174 3.81984C3.14873 3.87457 3.13128 3.93169 3.11938 3.9904C3.10827 4.04911 3.10351 4.1086 3.1043 4.1681C3.1051 4.2284 3.11224 4.2871 3.12572 4.34581C3.13842 4.40372 3.15746 4.46084 3.18284 4.51479C3.20744 4.56952 3.23758 4.62109 3.27328 4.66869C3.30898 4.71708 3.34865 4.76151 3.39387 4.80117L6.015 7.49768C4.6378 8.42586 3.4732 9.56746 2.51963 10.924C2.46727 10.9978 2.42681 11.0779 2.39904 11.1636C2.37127 11.2501 2.35779 11.3382 2.35779 11.4286C2.35779 11.519 2.37127 11.6071 2.39904 11.6936C2.42681 11.7792 2.46727 11.8594 2.51963 11.9331C4.85279 15.2548 8.05067 17.0818 11.4588 17.0818C12.5575 17.0723 13.6238 16.8811 14.6567 16.5074L17.2778 19.2293C17.3183 19.2698 17.3627 19.3055 17.4103 19.3372C17.4579 19.369 17.5079 19.3951 17.5602 19.4166C17.6134 19.4388 17.6681 19.4546 17.7236 19.4657C17.78 19.4768 17.8363 19.4824 17.8934 19.4824C17.9505 19.4824 18.0077 19.4768 18.0632 19.4657C18.1195 19.4546 18.1743 19.4388 18.2266 19.4166C18.2798 19.3951 18.3297 19.369 18.3773 19.3372C18.4249 19.3055 18.4694 19.2698 18.5098 19.2293C18.5503 19.1897 18.586 19.1452 18.6177 19.0984C18.6495 19.0508 18.6756 19.0009 18.6978 18.9485C18.7193 18.8953 18.7359 18.8414 18.747 18.7859C18.7581 18.7295 18.7637 18.6732 18.7637 18.6169C18.7637 18.5598 18.7581 18.5034 18.747 18.4471C18.7359 18.3916 18.7193 18.3376 18.6978 18.2853C18.6756 18.2321 18.6495 18.1821 18.6177 18.1353C18.586 18.0877 18.5503 18.0441 18.5098 18.0036L16.3163 15.7244C17.139 15.2492 17.9006 14.6915 18.6019 14.0521C19.3032 13.4127 19.9275 12.7066 20.4757 11.9331ZM8.67105 10.2807L12.5155 14.2814C12.1799 14.4035 11.8332 14.4678 11.4762 14.4726C11.3509 14.4726 11.2271 14.4646 11.1034 14.4496C10.9796 14.4345 10.8574 14.4115 10.7361 14.3813C10.6155 14.3512 10.4965 14.3131 10.3807 14.2687C10.264 14.2243 10.1514 14.1719 10.0411 14.114C9.93164 14.0553 9.82533 13.9902 9.72379 13.918C9.62145 13.8466 9.52466 13.7689 9.43264 13.6856C9.34061 13.6023 9.25335 13.5134 9.17243 13.4198C9.09071 13.3254 9.01535 13.2271 8.94633 13.1231C8.87731 13.02 8.81464 12.9129 8.75911 12.8018C8.70357 12.6916 8.65439 12.5773 8.61234 12.4607C8.57109 12.3433 8.53618 12.2243 8.50921 12.1029C8.48224 11.9823 8.4624 11.8602 8.4505 11.7364C8.4386 11.6126 8.43464 11.4889 8.43781 11.3651C8.44098 11.2406 8.45209 11.1176 8.47034 10.9946C8.48938 10.8725 8.51556 10.7511 8.54888 10.6313C8.5822 10.5123 8.62345 10.3949 8.67105 10.2807ZM13.9141 13.2286L9.77218 8.88044C10.003 8.72495 10.2513 8.60436 10.5155 8.5163C10.7797 8.42904 11.0518 8.37906 11.3295 8.36557C11.6079 8.35209 11.8832 8.37668 12.1553 8.43776C12.4266 8.49964 12.6853 8.59643 12.9296 8.72891C13.1747 8.8614 13.3977 9.02403 13.5976 9.21681C13.7983 9.40958 13.9681 9.62616 14.1093 9.86574C14.2497 10.1053 14.3552 10.3592 14.4258 10.6273C14.4964 10.8955 14.5297 11.1684 14.525 11.446C14.5242 11.7673 14.4726 12.0807 14.3695 12.3861C14.2663 12.6908 14.1172 12.9716 13.9228 13.2286H13.9141ZM4.25859 11.4286C5.08285 10.3671 6.06736 9.48336 7.21213 8.77572L7.39538 8.95818C7.26845 9.16365 7.15739 9.37785 7.06378 9.59998C6.96937 9.82211 6.89242 10.0506 6.83292 10.2846C6.77421 10.5179 6.73296 10.7551 6.70995 10.9954C6.68695 11.2358 6.68219 11.4762 6.69647 11.7166C6.71075 11.9577 6.74248 12.1957 6.79325 12.4321C6.84403 12.6678 6.91225 12.8986 6.99793 13.1239C7.08361 13.35 7.18674 13.5674 7.30574 13.7776C7.42553 13.9878 7.5596 14.187 7.71033 14.3766C6.35296 13.6332 5.20264 12.6511 4.25859 11.4286ZM15.2596 14.3591C15.4246 14.1513 15.5706 13.9315 15.6991 13.6991C15.8268 13.4674 15.9347 13.2263 16.022 12.9756C16.1092 12.7257 16.1751 12.4702 16.2195 12.2084C16.2639 11.9474 16.2854 11.6848 16.2854 11.4199C16.2854 11.1549 16.2639 10.8915 16.2195 10.6305C16.1751 10.3695 16.1092 10.1141 16.022 9.86336C15.9347 9.61347 15.8268 9.3723 15.6991 9.13985C15.5706 8.9082 15.4246 8.68766 15.2596 8.47981C16.6114 9.22633 17.7586 10.2093 18.7018 11.4286C17.7578 12.6424 16.6098 13.619 15.2596 14.3591Z" fill="#ABABAB"/>
</svg>
